<mxfile host="app.diagrams.net" modified="2023-12-25T10:42:40.531Z" agent="Mozilla/5.0 (Windows NT 10.0; Win64; x64) AppleWebKit/537.36 (KHTML, like Gecko) Chrome/120.0.0.0 Safari/537.36" etag="4ZqKmgvpGN6iG1G0zbTs" version="22.1.11" type="github" pages="6">
  <diagram name="AI Working" id="aIYeVRtH6kk5mDvQRCJ_">
    <mxGraphModel dx="955" dy="525" grid="1" gridSize="10" guides="1" tooltips="1" connect="1" arrows="1" fold="1" page="1" pageScale="1" pageWidth="850" pageHeight="1100" math="0" shadow="1">
      <root>
        <mxCell id="0" />
        <mxCell id="1" parent="0" />
        <mxCell id="6K_tXgXkhpdTpKsXDRfd-15" value="" style="edgeStyle=orthogonalEdgeStyle;rounded=0;orthogonalLoop=1;jettySize=auto;html=1;labelBackgroundColor=none;strokeColor=#A8201A;fontColor=default;" edge="1" parent="1" source="6K_tXgXkhpdTpKsXDRfd-1" target="6K_tXgXkhpdTpKsXDRfd-14">
          <mxGeometry relative="1" as="geometry">
            <Array as="points">
              <mxPoint x="300" y="180" />
              <mxPoint x="300" y="180" />
            </Array>
          </mxGeometry>
        </mxCell>
        <mxCell id="6K_tXgXkhpdTpKsXDRfd-1" value="&lt;b&gt;Organizational Data Collection&lt;/b&gt;" style="whiteSpace=wrap;html=1;aspect=fixed;align=center;labelBackgroundColor=none;fillColor=#FAE5C7;strokeColor=#0F8B8D;fontColor=#143642;" vertex="1" parent="1">
          <mxGeometry x="120" y="120" width="120" height="120" as="geometry" />
        </mxCell>
        <mxCell id="6K_tXgXkhpdTpKsXDRfd-2" value="&lt;font style=&quot;font-size: 8px;&quot;&gt;&lt;i&gt;Energy Consumption Record&lt;/i&gt;&lt;/font&gt;" style="rounded=0;whiteSpace=wrap;html=1;labelBackgroundColor=none;fillColor=#FAE5C7;strokeColor=#0F8B8D;fontColor=#143642;" vertex="1" parent="1">
          <mxGeometry x="60" y="60" width="80" height="40" as="geometry" />
        </mxCell>
        <mxCell id="6K_tXgXkhpdTpKsXDRfd-3" value="&lt;font style=&quot;font-size: 8px;&quot;&gt;&lt;i&gt;Resource Usage Data&lt;/i&gt;&lt;/font&gt;" style="rounded=0;whiteSpace=wrap;html=1;labelBackgroundColor=none;fillColor=#FAE5C7;strokeColor=#0F8B8D;fontColor=#143642;" vertex="1" parent="1">
          <mxGeometry x="60" y="260" width="80" height="40" as="geometry" />
        </mxCell>
        <mxCell id="6K_tXgXkhpdTpKsXDRfd-4" value="&lt;font style=&quot;font-size: 8px;&quot;&gt;&lt;i&gt;Supply Chain Logistic Info.&lt;/i&gt;&lt;/font&gt;" style="rounded=0;whiteSpace=wrap;html=1;labelBackgroundColor=none;fillColor=#FAE5C7;strokeColor=#0F8B8D;fontColor=#143642;" vertex="1" parent="1">
          <mxGeometry x="10" y="120" width="80" height="40" as="geometry" />
        </mxCell>
        <mxCell id="6K_tXgXkhpdTpKsXDRfd-5" value="&lt;font style=&quot;font-size: 8px;&quot;&gt;&lt;i&gt;Operational Activity Metrics&lt;/i&gt;&lt;/font&gt;" style="rounded=0;whiteSpace=wrap;html=1;labelBackgroundColor=none;fillColor=#FAE5C7;strokeColor=#0F8B8D;fontColor=#143642;" vertex="1" parent="1">
          <mxGeometry x="10" y="200" width="80" height="40" as="geometry" />
        </mxCell>
        <mxCell id="6K_tXgXkhpdTpKsXDRfd-6" value="" style="endArrow=classic;html=1;rounded=0;labelBackgroundColor=none;strokeColor=#A8201A;fontColor=default;" edge="1" parent="1">
          <mxGeometry width="50" height="50" relative="1" as="geometry">
            <mxPoint x="146" y="85" as="sourcePoint" />
            <mxPoint x="196" y="115" as="targetPoint" />
          </mxGeometry>
        </mxCell>
        <mxCell id="6K_tXgXkhpdTpKsXDRfd-10" value="" style="endArrow=classic;html=1;rounded=0;labelBackgroundColor=none;strokeColor=#A8201A;fontColor=default;" edge="1" parent="1">
          <mxGeometry width="50" height="50" relative="1" as="geometry">
            <mxPoint x="146" y="285" as="sourcePoint" />
            <mxPoint x="196" y="245" as="targetPoint" />
          </mxGeometry>
        </mxCell>
        <mxCell id="6K_tXgXkhpdTpKsXDRfd-12" value="" style="endArrow=classic;html=1;rounded=0;labelBackgroundColor=none;strokeColor=#A8201A;fontColor=default;" edge="1" parent="1">
          <mxGeometry width="50" height="50" relative="1" as="geometry">
            <mxPoint x="95" y="220" as="sourcePoint" />
            <mxPoint x="115" y="200" as="targetPoint" />
          </mxGeometry>
        </mxCell>
        <mxCell id="6K_tXgXkhpdTpKsXDRfd-13" value="" style="endArrow=classic;html=1;rounded=0;labelBackgroundColor=none;strokeColor=#A8201A;fontColor=default;" edge="1" parent="1">
          <mxGeometry width="50" height="50" relative="1" as="geometry">
            <mxPoint x="96" y="145" as="sourcePoint" />
            <mxPoint x="116" y="155" as="targetPoint" />
          </mxGeometry>
        </mxCell>
        <mxCell id="6K_tXgXkhpdTpKsXDRfd-26" value="" style="edgeStyle=orthogonalEdgeStyle;rounded=0;orthogonalLoop=1;jettySize=auto;html=1;labelBackgroundColor=none;strokeColor=#A8201A;fontColor=default;" edge="1" parent="1" source="6K_tXgXkhpdTpKsXDRfd-14" target="6K_tXgXkhpdTpKsXDRfd-25">
          <mxGeometry relative="1" as="geometry" />
        </mxCell>
        <mxCell id="6K_tXgXkhpdTpKsXDRfd-14" value="&lt;div style=&quot;&quot;&gt;&lt;span style=&quot;background-color: initial;&quot;&gt;&lt;b&gt;&amp;nbsp; &amp;nbsp; &amp;nbsp;Data Analysis&lt;/b&gt;&lt;/span&gt;&lt;/div&gt;" style="whiteSpace=wrap;html=1;aspect=fixed;align=left;labelBackgroundColor=none;fillColor=#FAE5C7;strokeColor=#0F8B8D;fontColor=#143642;" vertex="1" parent="1">
          <mxGeometry x="320" y="70" width="230" height="230" as="geometry" />
        </mxCell>
        <mxCell id="6K_tXgXkhpdTpKsXDRfd-21" value="&lt;font style=&quot;font-size: 8px;&quot;&gt;&lt;i&gt;AI-Driven Pattern&lt;/i&gt;&lt;/font&gt;" style="rounded=0;whiteSpace=wrap;html=1;labelBackgroundColor=none;fillColor=#FAE5C7;strokeColor=#0F8B8D;fontColor=#143642;" vertex="1" parent="1">
          <mxGeometry x="450" y="80" width="80" height="40" as="geometry" />
        </mxCell>
        <mxCell id="6K_tXgXkhpdTpKsXDRfd-22" value="&lt;font style=&quot;font-size: 8px;&quot;&gt;&lt;i&gt;Emission Hotspot Detection&lt;/i&gt;&lt;/font&gt;" style="rounded=0;whiteSpace=wrap;html=1;labelBackgroundColor=none;fillColor=#FAE5C7;strokeColor=#0F8B8D;fontColor=#143642;" vertex="1" parent="1">
          <mxGeometry x="450" y="185" width="80" height="40" as="geometry" />
        </mxCell>
        <mxCell id="6K_tXgXkhpdTpKsXDRfd-23" value="&lt;font style=&quot;font-size: 8px;&quot;&gt;&lt;i&gt;Carbon Emission Factor Application&lt;/i&gt;&lt;/font&gt;" style="rounded=0;whiteSpace=wrap;html=1;labelBackgroundColor=none;fillColor=#FAE5C7;strokeColor=#0F8B8D;fontColor=#143642;" vertex="1" parent="1">
          <mxGeometry x="450" y="132" width="80" height="40" as="geometry" />
        </mxCell>
        <mxCell id="6K_tXgXkhpdTpKsXDRfd-24" value="&lt;font style=&quot;font-size: 8px;&quot;&gt;&lt;i&gt;Calculating Total Carbon Footprint&lt;/i&gt;&lt;/font&gt;" style="rounded=0;whiteSpace=wrap;html=1;labelBackgroundColor=none;fillColor=#FAE5C7;strokeColor=#0F8B8D;fontColor=#143642;" vertex="1" parent="1">
          <mxGeometry x="450" y="240" width="80" height="40" as="geometry" />
        </mxCell>
        <mxCell id="6K_tXgXkhpdTpKsXDRfd-32" value="" style="edgeStyle=orthogonalEdgeStyle;rounded=0;orthogonalLoop=1;jettySize=auto;html=1;labelBackgroundColor=none;strokeColor=#A8201A;fontColor=default;" edge="1" parent="1" source="6K_tXgXkhpdTpKsXDRfd-25" target="6K_tXgXkhpdTpKsXDRfd-31">
          <mxGeometry relative="1" as="geometry" />
        </mxCell>
        <mxCell id="6K_tXgXkhpdTpKsXDRfd-25" value="&lt;div style=&quot;&quot;&gt;&lt;span style=&quot;background-color: initial;&quot;&gt;&lt;b&gt;&amp;nbsp; &amp;nbsp; Emission Reporting&lt;/b&gt;&lt;/span&gt;&lt;/div&gt;" style="whiteSpace=wrap;html=1;aspect=fixed;align=left;labelBackgroundColor=none;fillColor=#FAE5C7;strokeColor=#0F8B8D;fontColor=#143642;" vertex="1" parent="1">
          <mxGeometry x="630" y="70" width="230" height="230" as="geometry" />
        </mxCell>
        <mxCell id="6K_tXgXkhpdTpKsXDRfd-27" value="&lt;font style=&quot;font-size: 8px;&quot;&gt;&lt;i&gt;Breakdown by BU /&amp;nbsp; Activities&lt;/i&gt;&lt;/font&gt;" style="rounded=0;whiteSpace=wrap;html=1;labelBackgroundColor=none;fillColor=#FAE5C7;strokeColor=#0F8B8D;fontColor=#143642;" vertex="1" parent="1">
          <mxGeometry x="770" y="80" width="80" height="40" as="geometry" />
        </mxCell>
        <mxCell id="6K_tXgXkhpdTpKsXDRfd-28" value="&lt;font style=&quot;font-size: 8px;&quot;&gt;&lt;i&gt;Compliance With Reporting Standards&lt;/i&gt;&lt;/font&gt;" style="rounded=0;whiteSpace=wrap;html=1;labelBackgroundColor=none;fillColor=#FAE5C7;strokeColor=#0F8B8D;fontColor=#143642;" vertex="1" parent="1">
          <mxGeometry x="770" y="185" width="80" height="40" as="geometry" />
        </mxCell>
        <mxCell id="6K_tXgXkhpdTpKsXDRfd-29" value="&lt;font style=&quot;font-size: 8px;&quot;&gt;&lt;i&gt;Historical Data Comparison&lt;/i&gt;&lt;/font&gt;" style="rounded=0;whiteSpace=wrap;html=1;labelBackgroundColor=none;fillColor=#FAE5C7;strokeColor=#0F8B8D;fontColor=#143642;" vertex="1" parent="1">
          <mxGeometry x="770" y="132" width="80" height="40" as="geometry" />
        </mxCell>
        <mxCell id="6K_tXgXkhpdTpKsXDRfd-30" value="&lt;font style=&quot;font-size: 8px;&quot;&gt;&lt;i&gt;Visualization Of Emission Data&lt;/i&gt;&lt;/font&gt;" style="rounded=0;whiteSpace=wrap;html=1;labelBackgroundColor=none;fillColor=#FAE5C7;strokeColor=#0F8B8D;fontColor=#143642;" vertex="1" parent="1">
          <mxGeometry x="770" y="240" width="80" height="40" as="geometry" />
        </mxCell>
        <mxCell id="6K_tXgXkhpdTpKsXDRfd-52" value="" style="edgeStyle=orthogonalEdgeStyle;rounded=0;orthogonalLoop=1;jettySize=auto;html=1;labelBackgroundColor=none;strokeColor=#A8201A;fontColor=default;" edge="1" parent="1" source="6K_tXgXkhpdTpKsXDRfd-31" target="6K_tXgXkhpdTpKsXDRfd-51">
          <mxGeometry relative="1" as="geometry" />
        </mxCell>
        <mxCell id="6K_tXgXkhpdTpKsXDRfd-31" value="&lt;div style=&quot;&quot;&gt;&lt;span style=&quot;background-color: initial;&quot;&gt;&amp;nbsp; &amp;nbsp;&lt;b&gt;Recommendation&lt;/b&gt;&lt;/span&gt;&lt;/div&gt;&lt;div style=&quot;&quot;&gt;&lt;span style=&quot;background-color: initial;&quot;&gt;&lt;b&gt;&amp;nbsp; &amp;nbsp;Generation&lt;/b&gt;&lt;/span&gt;&lt;/div&gt;" style="whiteSpace=wrap;html=1;aspect=fixed;align=left;labelBackgroundColor=none;fillColor=#FAE5C7;strokeColor=#0F8B8D;fontColor=#143642;" vertex="1" parent="1">
          <mxGeometry x="940" y="70" width="230" height="230" as="geometry" />
        </mxCell>
        <mxCell id="6K_tXgXkhpdTpKsXDRfd-47" value="&lt;font style=&quot;font-size: 8px;&quot;&gt;&lt;i&gt;Iterative Process Improvement&lt;/i&gt;&lt;/font&gt;" style="rounded=0;whiteSpace=wrap;html=1;labelBackgroundColor=none;fillColor=#FAE5C7;strokeColor=#0F8B8D;fontColor=#143642;" vertex="1" parent="1">
          <mxGeometry x="1080" y="85" width="80" height="40" as="geometry" />
        </mxCell>
        <mxCell id="6K_tXgXkhpdTpKsXDRfd-48" value="&lt;font style=&quot;font-size: 8px;&quot;&gt;Adjustment To Strategies Based On Outcomes&lt;/font&gt;" style="rounded=0;whiteSpace=wrap;html=1;labelBackgroundColor=none;fillColor=#FAE5C7;strokeColor=#0F8B8D;fontColor=#143642;fontStyle=2" vertex="1" parent="1">
          <mxGeometry x="1080" y="190" width="80" height="40" as="geometry" />
        </mxCell>
        <mxCell id="6K_tXgXkhpdTpKsXDRfd-49" value="&lt;font style=&quot;font-size: 8px;&quot;&gt;Incorporation&amp;nbsp; Of Stakeholder&amp;nbsp; &amp;amp; Govt. Bodies&lt;/font&gt;" style="rounded=0;whiteSpace=wrap;html=1;labelBackgroundColor=none;fillColor=#FAE5C7;strokeColor=#0F8B8D;fontColor=#143642;fontStyle=2" vertex="1" parent="1">
          <mxGeometry x="1080" y="137" width="80" height="40" as="geometry" />
        </mxCell>
        <mxCell id="6K_tXgXkhpdTpKsXDRfd-50" value="&lt;font style=&quot;font-size: 8px;&quot;&gt;Reinforcement Learning From AI For Predictive Insights&lt;/font&gt;" style="rounded=0;whiteSpace=wrap;html=1;labelBackgroundColor=none;fillColor=#FAE5C7;strokeColor=#0F8B8D;fontColor=#143642;fontStyle=2" vertex="1" parent="1">
          <mxGeometry x="1080" y="245" width="80" height="40" as="geometry" />
        </mxCell>
        <mxCell id="6K_tXgXkhpdTpKsXDRfd-59" value="" style="edgeStyle=orthogonalEdgeStyle;rounded=0;orthogonalLoop=1;jettySize=auto;html=1;labelBackgroundColor=none;strokeColor=#A8201A;fontColor=default;" edge="1" parent="1" source="6K_tXgXkhpdTpKsXDRfd-51">
          <mxGeometry relative="1" as="geometry">
            <mxPoint x="1630" y="490" as="targetPoint" />
          </mxGeometry>
        </mxCell>
        <mxCell id="6K_tXgXkhpdTpKsXDRfd-51" value="&lt;div style=&quot;&quot;&gt;&lt;span style=&quot;background-color: initial;&quot;&gt;&lt;b&gt;&amp;nbsp; &amp;nbsp;Monitoring And&lt;br&gt;&lt;/b&gt;&lt;/span&gt;&lt;/div&gt;&lt;div style=&quot;&quot;&gt;&lt;span style=&quot;background-color: initial;&quot;&gt;&lt;b&gt;&amp;nbsp; &amp;nbsp;Tracking&lt;/b&gt;&lt;/span&gt;&lt;/div&gt;" style="whiteSpace=wrap;html=1;aspect=fixed;align=left;labelBackgroundColor=none;fillColor=#FAE5C7;strokeColor=#0F8B8D;fontColor=#143642;" vertex="1" parent="1">
          <mxGeometry x="1250" y="70" width="230" height="230" as="geometry" />
        </mxCell>
        <mxCell id="6K_tXgXkhpdTpKsXDRfd-53" value="&lt;font style=&quot;font-size: 8px;&quot;&gt;Real Time Data Monitoring&lt;/font&gt;" style="rounded=0;whiteSpace=wrap;html=1;labelBackgroundColor=none;fillColor=#FAE5C7;strokeColor=#0F8B8D;fontColor=#143642;fontStyle=2" vertex="1" parent="1">
          <mxGeometry x="1390" y="85" width="80" height="40" as="geometry" />
        </mxCell>
        <mxCell id="6K_tXgXkhpdTpKsXDRfd-54" value="&lt;font style=&quot;font-size: 8px;&quot;&gt;Alert System For Deviations&lt;/font&gt;" style="rounded=0;whiteSpace=wrap;html=1;labelBackgroundColor=none;fillColor=#FAE5C7;strokeColor=#0F8B8D;fontColor=#143642;fontStyle=2" vertex="1" parent="1">
          <mxGeometry x="1390" y="190" width="80" height="40" as="geometry" />
        </mxCell>
        <mxCell id="6K_tXgXkhpdTpKsXDRfd-55" value="&lt;font style=&quot;font-size: 8px;&quot;&gt;Progress Tracking Against Targets&lt;/font&gt;" style="rounded=0;whiteSpace=wrap;html=1;labelBackgroundColor=none;fillColor=#FAE5C7;strokeColor=#0F8B8D;fontColor=#143642;fontStyle=2" vertex="1" parent="1">
          <mxGeometry x="1390" y="137" width="80" height="40" as="geometry" />
        </mxCell>
        <mxCell id="6K_tXgXkhpdTpKsXDRfd-56" value="&lt;font style=&quot;font-size: 8px;&quot;&gt;Continuous Data Verification&lt;/font&gt;" style="rounded=0;whiteSpace=wrap;html=1;labelBackgroundColor=none;fillColor=#FAE5C7;strokeColor=#0F8B8D;fontColor=#143642;fontStyle=2" vertex="1" parent="1">
          <mxGeometry x="1390" y="245" width="80" height="40" as="geometry" />
        </mxCell>
        <mxCell id="6K_tXgXkhpdTpKsXDRfd-61" value="" style="edgeStyle=orthogonalEdgeStyle;rounded=0;orthogonalLoop=1;jettySize=auto;html=1;labelBackgroundColor=none;strokeColor=#A8201A;fontColor=default;" edge="1" parent="1" target="6K_tXgXkhpdTpKsXDRfd-60">
          <mxGeometry relative="1" as="geometry">
            <mxPoint x="1630" y="490" as="sourcePoint" />
          </mxGeometry>
        </mxCell>
        <mxCell id="6K_tXgXkhpdTpKsXDRfd-65" value="" style="edgeStyle=orthogonalEdgeStyle;rounded=0;orthogonalLoop=1;jettySize=auto;html=1;labelBackgroundColor=none;strokeColor=#A8201A;fontColor=default;" edge="1" parent="1" source="6K_tXgXkhpdTpKsXDRfd-60">
          <mxGeometry relative="1" as="geometry">
            <mxPoint x="440" y="490" as="targetPoint" />
          </mxGeometry>
        </mxCell>
        <mxCell id="6K_tXgXkhpdTpKsXDRfd-60" value="Optimization And Feedback" style="whiteSpace=wrap;html=1;align=center;labelBackgroundColor=none;fillColor=#FAE5C7;strokeColor=#0F8B8D;fontColor=#143642;" vertex="1" parent="1">
          <mxGeometry x="760" y="460" width="180" height="60" as="geometry" />
        </mxCell>
        <mxCell id="6K_tXgXkhpdTpKsXDRfd-67" value="" style="endArrow=classic;html=1;rounded=0;labelBackgroundColor=none;strokeColor=#A8201A;fontColor=default;" edge="1" parent="1">
          <mxGeometry width="50" height="50" relative="1" as="geometry">
            <mxPoint x="439" y="490" as="sourcePoint" />
            <mxPoint x="439" y="300" as="targetPoint" />
          </mxGeometry>
        </mxCell>
        <mxCell id="6K_tXgXkhpdTpKsXDRfd-68" value="" style="endArrow=classic;html=1;rounded=0;strokeColor=#A8201A;fontColor=#143642;fillColor=#FAE5C7;" edge="1" parent="1">
          <mxGeometry width="50" height="50" relative="1" as="geometry">
            <mxPoint x="1630" y="185" as="sourcePoint" />
            <mxPoint x="1710" y="185" as="targetPoint" />
          </mxGeometry>
        </mxCell>
        <mxCell id="6K_tXgXkhpdTpKsXDRfd-69" value="Achieve Government Cut Off" style="rounded=0;whiteSpace=wrap;html=1;strokeColor=#0F8B8D;fontColor=#143642;fillColor=#FAE5C7;" vertex="1" parent="1">
          <mxGeometry x="1710" y="155" width="120" height="60" as="geometry" />
        </mxCell>
        <mxCell id="6K_tXgXkhpdTpKsXDRfd-70" value="" style="endArrow=classic;html=1;rounded=0;strokeColor=#A8201A;fontColor=#143642;fillColor=#FAE5C7;" edge="1" parent="1">
          <mxGeometry width="50" height="50" relative="1" as="geometry">
            <mxPoint x="1830" y="185" as="sourcePoint" />
            <mxPoint x="1900" y="185" as="targetPoint" />
          </mxGeometry>
        </mxCell>
        <mxCell id="6K_tXgXkhpdTpKsXDRfd-71" value="Achieve Net Zero" style="rounded=0;whiteSpace=wrap;html=1;strokeColor=#0F8B8D;fontColor=#143642;fillColor=#FAE5C7;" vertex="1" parent="1">
          <mxGeometry x="1900" y="155" width="120" height="60" as="geometry" />
        </mxCell>
      </root>
    </mxGraphModel>
  </diagram>
  <diagram id="TIsqHDz9ofHkWfRV4YVw" name="Business Structure">
    <mxGraphModel dx="1900" dy="577" grid="1" gridSize="10" guides="1" tooltips="1" connect="1" arrows="1" fold="1" page="1" pageScale="1" pageWidth="850" pageHeight="1100" math="0" shadow="0">
      <root>
        <mxCell id="0" />
        <mxCell id="1" parent="0" />
        <mxCell id="7XGHj2sXxl0bTl6fY2p5-1" value="Business Verticles" style="text;html=1;strokeColor=none;fillColor=none;align=center;verticalAlign=middle;whiteSpace=wrap;rounded=0;fontColor=#FFFFFF;fontStyle=1" parent="1" vertex="1">
          <mxGeometry x="340" y="10" width="100" height="30" as="geometry" />
        </mxCell>
        <mxCell id="7XGHj2sXxl0bTl6fY2p5-2" value="" style="endArrow=classic;html=1;rounded=0;strokeColor=#A8201A;fontColor=#FFFFFF;fillColor=#FAE5C7;" parent="1" edge="1">
          <mxGeometry width="50" height="50" relative="1" as="geometry">
            <mxPoint x="330" y="60" as="sourcePoint" />
            <mxPoint x="330.5" y="110" as="targetPoint" />
          </mxGeometry>
        </mxCell>
        <mxCell id="7XGHj2sXxl0bTl6fY2p5-3" value="" style="endArrow=none;html=1;rounded=0;strokeColor=#A8201A;fontColor=#000000;fillColor=#FAE5C7;" parent="1" edge="1">
          <mxGeometry width="50" height="50" relative="1" as="geometry">
            <mxPoint x="20" y="110" as="sourcePoint" />
            <mxPoint x="610" y="110" as="targetPoint" />
          </mxGeometry>
        </mxCell>
        <mxCell id="7XGHj2sXxl0bTl6fY2p5-4" value="Physical Carbon Credit Trade" style="text;html=1;strokeColor=none;fillColor=none;align=center;verticalAlign=middle;whiteSpace=wrap;rounded=0;fontColor=#000000;fontStyle=1" parent="1" vertex="1">
          <mxGeometry x="-20" y="150" width="100" height="30" as="geometry" />
        </mxCell>
        <mxCell id="7XGHj2sXxl0bTl6fY2p5-5" value="Offset Project Consulting" style="text;html=1;strokeColor=none;fillColor=none;align=center;verticalAlign=middle;whiteSpace=wrap;rounded=0;fontColor=#000000;fontStyle=1" parent="1" vertex="1">
          <mxGeometry x="100" y="150" width="100" height="30" as="geometry" />
        </mxCell>
        <mxCell id="7XGHj2sXxl0bTl6fY2p5-6" value="Carbon Credit Trading Exchange" style="text;html=1;strokeColor=none;fillColor=none;align=center;verticalAlign=middle;whiteSpace=wrap;rounded=0;fontColor=#000000;fontStyle=1" parent="1" vertex="1">
          <mxGeometry x="210" y="150" width="110" height="30" as="geometry" />
        </mxCell>
        <mxCell id="7XGHj2sXxl0bTl6fY2p5-7" value="Offset Project Marketplace" style="text;html=1;strokeColor=none;fillColor=none;align=center;verticalAlign=middle;whiteSpace=wrap;rounded=0;fontColor=#000000;fontStyle=1" parent="1" vertex="1">
          <mxGeometry x="330" y="150" width="110" height="30" as="geometry" />
        </mxCell>
        <mxCell id="7XGHj2sXxl0bTl6fY2p5-9" value="AI-Driven (Net Zero) Tool" style="text;html=1;strokeColor=none;fillColor=none;align=center;verticalAlign=middle;whiteSpace=wrap;rounded=0;fontColor=#000000;fontStyle=1" parent="1" vertex="1">
          <mxGeometry x="450" y="150" width="110" height="30" as="geometry" />
        </mxCell>
        <mxCell id="7XGHj2sXxl0bTl6fY2p5-10" value="" style="endArrow=classic;html=1;rounded=0;strokeColor=#A8201A;fontColor=#000000;fillColor=#FAE5C7;" parent="1" edge="1">
          <mxGeometry width="50" height="50" relative="1" as="geometry">
            <mxPoint x="139.5" y="110" as="sourcePoint" />
            <mxPoint x="140" y="140" as="targetPoint" />
          </mxGeometry>
        </mxCell>
        <mxCell id="7XGHj2sXxl0bTl6fY2p5-14" value="" style="endArrow=classic;html=1;rounded=0;strokeColor=#A8201A;fontColor=#000000;fillColor=#FAE5C7;" parent="1" edge="1">
          <mxGeometry width="50" height="50" relative="1" as="geometry">
            <mxPoint x="269.5" y="110" as="sourcePoint" />
            <mxPoint x="270" y="140" as="targetPoint" />
          </mxGeometry>
        </mxCell>
        <mxCell id="7XGHj2sXxl0bTl6fY2p5-15" value="" style="endArrow=classic;html=1;rounded=0;strokeColor=#A8201A;fontColor=#000000;fillColor=#FAE5C7;" parent="1" edge="1">
          <mxGeometry width="50" height="50" relative="1" as="geometry">
            <mxPoint x="384.5" y="110" as="sourcePoint" />
            <mxPoint x="385" y="140" as="targetPoint" />
          </mxGeometry>
        </mxCell>
        <mxCell id="7XGHj2sXxl0bTl6fY2p5-16" value="" style="endArrow=classic;html=1;rounded=0;strokeColor=#A8201A;fontColor=#000000;fillColor=#FAE5C7;" parent="1" edge="1">
          <mxGeometry width="50" height="50" relative="1" as="geometry">
            <mxPoint x="500" y="110" as="sourcePoint" />
            <mxPoint x="500.5" y="140" as="targetPoint" />
          </mxGeometry>
        </mxCell>
        <mxCell id="7XGHj2sXxl0bTl6fY2p5-17" value="" style="endArrow=classic;html=1;rounded=0;strokeColor=#A8201A;fontColor=#000000;fillColor=#FAE5C7;" parent="1" edge="1">
          <mxGeometry width="50" height="50" relative="1" as="geometry">
            <mxPoint x="610" y="110" as="sourcePoint" />
            <mxPoint x="610.5" y="140" as="targetPoint" />
          </mxGeometry>
        </mxCell>
        <mxCell id="GJYVKXeg6ERvemT6hIha-1" value="" style="endArrow=classic;html=1;rounded=0;strokeColor=#A8201A;fontColor=#000000;fillColor=#FAE5C7;" parent="1" edge="1">
          <mxGeometry width="50" height="50" relative="1" as="geometry">
            <mxPoint x="20.5" y="111" as="sourcePoint" />
            <mxPoint x="21" y="141" as="targetPoint" />
          </mxGeometry>
        </mxCell>
        <mxCell id="GJYVKXeg6ERvemT6hIha-2" value="CBAM Compliance &amp;amp; Platform" style="text;html=1;strokeColor=none;fillColor=none;align=center;verticalAlign=middle;whiteSpace=wrap;rounded=0;fontColor=#000000;fontStyle=1" parent="1" vertex="1">
          <mxGeometry x="560" y="150" width="110" height="30" as="geometry" />
        </mxCell>
      </root>
    </mxGraphModel>
  </diagram>
  <diagram id="B7_6-d-PZ8byBq2a3U3f" name="Land Registry">
    <mxGraphModel dx="1050" dy="577" grid="1" gridSize="10" guides="1" tooltips="1" connect="1" arrows="1" fold="1" page="1" pageScale="1" pageWidth="850" pageHeight="1100" math="0" shadow="0">
      <root>
        <mxCell id="0" />
        <mxCell id="1" parent="0" />
        <mxCell id="Dpz7AJ9wDPO2nOmzFeaS-65" value="" style="group" parent="1" vertex="1" connectable="0">
          <mxGeometry x="20" y="10" width="810" height="1050" as="geometry" />
        </mxCell>
        <mxCell id="Dpz7AJ9wDPO2nOmzFeaS-9" value="" style="edgeStyle=orthogonalEdgeStyle;rounded=0;orthogonalLoop=1;jettySize=auto;html=1;" parent="Dpz7AJ9wDPO2nOmzFeaS-65" edge="1">
          <mxGeometry relative="1" as="geometry">
            <mxPoint x="351.48214285714283" y="445.45454545454555" as="sourcePoint" />
            <mxPoint x="351.48214285714283" y="525" as="targetPoint" />
          </mxGeometry>
        </mxCell>
        <mxCell id="Dpz7AJ9wDPO2nOmzFeaS-2" value="Tehsildar" style="rounded=1;whiteSpace=wrap;html=1;fontStyle=1" parent="Dpz7AJ9wDPO2nOmzFeaS-65" vertex="1">
          <mxGeometry x="260.35714285714283" y="350.0000000000001" width="173.57142857142856" height="95.45454545454545" as="geometry" />
        </mxCell>
        <mxCell id="Dpz7AJ9wDPO2nOmzFeaS-8" value="Kanungo" style="rounded=1;whiteSpace=wrap;html=1;fontStyle=1" parent="Dpz7AJ9wDPO2nOmzFeaS-65" vertex="1">
          <mxGeometry x="260.35714285714283" y="525" width="173.57142857142856" height="95.45454545454545" as="geometry" />
        </mxCell>
        <mxCell id="Dpz7AJ9wDPO2nOmzFeaS-14" value="" style="edgeStyle=orthogonalEdgeStyle;rounded=0;orthogonalLoop=1;jettySize=auto;html=1;" parent="Dpz7AJ9wDPO2nOmzFeaS-65" source="Dpz7AJ9wDPO2nOmzFeaS-12" edge="1">
          <mxGeometry relative="1" as="geometry">
            <mxPoint x="347.1428571428571" y="175.00000000000006" as="targetPoint" />
          </mxGeometry>
        </mxCell>
        <mxCell id="Dpz7AJ9wDPO2nOmzFeaS-12" value="DM (Divisional Magistrate / Collector)" style="rounded=1;whiteSpace=wrap;html=1;fontStyle=1" parent="Dpz7AJ9wDPO2nOmzFeaS-65" vertex="1">
          <mxGeometry x="242.27678571428572" width="209.73214285714286" height="95.45454545454545" as="geometry" />
        </mxCell>
        <mxCell id="Dpz7AJ9wDPO2nOmzFeaS-13" value="SDM (Record Keeping Office)" style="whiteSpace=wrap;html=1;rounded=1;fontStyle=1" parent="Dpz7AJ9wDPO2nOmzFeaS-65" vertex="1">
          <mxGeometry x="260.35714285714283" y="175.00000000000006" width="173.57142857142856" height="95.45454545454545" as="geometry" />
        </mxCell>
        <mxCell id="Dpz7AJ9wDPO2nOmzFeaS-19" value="&lt;ul&gt;&lt;li&gt;Job of record keeping assigned to SDM&lt;/li&gt;&lt;li&gt;Provide certificate / record till 75 years&lt;/li&gt;&lt;/ul&gt;" style="text;html=1;strokeColor=none;fillColor=none;align=left;verticalAlign=middle;whiteSpace=wrap;rounded=0;" parent="Dpz7AJ9wDPO2nOmzFeaS-65" vertex="1">
          <mxGeometry x="477.32142857142844" y="198.86363636363637" width="274.8214285714285" height="47.72727272727273" as="geometry" />
        </mxCell>
        <mxCell id="Dpz7AJ9wDPO2nOmzFeaS-30" value="" style="edgeStyle=orthogonalEdgeStyle;rounded=0;orthogonalLoop=1;jettySize=auto;html=1;" parent="Dpz7AJ9wDPO2nOmzFeaS-65" edge="1">
          <mxGeometry relative="1" as="geometry">
            <mxPoint x="351.48214285714283" y="272.0454545454545" as="sourcePoint" />
            <mxPoint x="351.48214285714283" y="351.5909090909091" as="targetPoint" />
          </mxGeometry>
        </mxCell>
        <mxCell id="Dpz7AJ9wDPO2nOmzFeaS-33" value="&lt;ul&gt;&lt;li&gt;village revenue account &amp;amp; land records&lt;br&gt;&lt;/li&gt;&lt;li&gt;Provide certificate / record of last 12 yrs&lt;/li&gt;&lt;li&gt;Covers 1-4 villages&lt;/li&gt;&lt;/ul&gt;" style="text;html=1;strokeColor=none;fillColor=none;align=left;verticalAlign=middle;whiteSpace=wrap;rounded=0;" parent="Dpz7AJ9wDPO2nOmzFeaS-65" vertex="1">
          <mxGeometry x="477.32142857142844" y="723.8636363636365" width="289.2857142857142" height="47.72727272727273" as="geometry" />
        </mxCell>
        <mxCell id="Dpz7AJ9wDPO2nOmzFeaS-10" value="Lekhpal" style="whiteSpace=wrap;html=1;rounded=1;fontStyle=1" parent="Dpz7AJ9wDPO2nOmzFeaS-65" vertex="1">
          <mxGeometry x="260.35714285714283" y="700.0000000000002" width="173.57142857142856" height="95.45454545454545" as="geometry" />
        </mxCell>
        <mxCell id="Dpz7AJ9wDPO2nOmzFeaS-11" value="" style="edgeStyle=orthogonalEdgeStyle;rounded=0;orthogonalLoop=1;jettySize=auto;html=1;" parent="Dpz7AJ9wDPO2nOmzFeaS-65" source="Dpz7AJ9wDPO2nOmzFeaS-8" target="Dpz7AJ9wDPO2nOmzFeaS-10" edge="1">
          <mxGeometry relative="1" as="geometry" />
        </mxCell>
        <mxCell id="Dpz7AJ9wDPO2nOmzFeaS-39" value="Sub Registrar Office&lt;br&gt;(SRO)" style="whiteSpace=wrap;html=1;rounded=1;fontStyle=1" parent="Dpz7AJ9wDPO2nOmzFeaS-65" vertex="1">
          <mxGeometry x="130.17857142857142" y="890.9090909090911" width="462.85714285714283" height="159.09090909090912" as="geometry" />
        </mxCell>
        <mxCell id="Dpz7AJ9wDPO2nOmzFeaS-44" value="&lt;ul&gt;&lt;li&gt;The Kanungo, under the supervision of the Tehsildar, ensures that the land records are updated accurately&lt;br&gt;&lt;/li&gt;&lt;li&gt;Overseeing the work of Lekhpals&lt;/li&gt;&lt;/ul&gt;" style="text;html=1;strokeColor=none;fillColor=none;align=left;verticalAlign=middle;whiteSpace=wrap;rounded=0;" parent="Dpz7AJ9wDPO2nOmzFeaS-65" vertex="1">
          <mxGeometry x="477.32142857142844" y="477.27272727272725" width="332.6785714285714" height="190.9090909090909" as="geometry" />
        </mxCell>
        <mxCell id="Dpz7AJ9wDPO2nOmzFeaS-45" value="&lt;ul&gt;&lt;li&gt;SRO processes the documents, the information is usually forwarded to the Tehsildar’s office.Overseeing the work of Lekhpals&lt;br&gt;&lt;/li&gt;&lt;/ul&gt;" style="text;html=1;strokeColor=none;fillColor=none;align=left;verticalAlign=middle;whiteSpace=wrap;rounded=0;" parent="Dpz7AJ9wDPO2nOmzFeaS-65" vertex="1">
          <mxGeometry x="477.32142857142844" y="302.2727272727273" width="332.6785714285714" height="190.9090909090909" as="geometry" />
        </mxCell>
        <mxCell id="Dpz7AJ9wDPO2nOmzFeaS-54" value="" style="endArrow=classic;html=1;rounded=0;entryX=0.472;entryY=0;entryDx=0;entryDy=0;entryPerimeter=0;" parent="Dpz7AJ9wDPO2nOmzFeaS-65" target="Dpz7AJ9wDPO2nOmzFeaS-39" edge="1">
          <mxGeometry width="50" height="50" relative="1" as="geometry">
            <mxPoint x="348.5892857142857" y="800.2272727272726" as="sourcePoint" />
            <mxPoint x="348.5892857142857" y="875.0000000000001" as="targetPoint" />
          </mxGeometry>
        </mxCell>
        <mxCell id="Dpz7AJ9wDPO2nOmzFeaS-55" value="" style="endArrow=classic;html=1;rounded=0;entryX=0;entryY=0.5;entryDx=0;entryDy=0;" parent="Dpz7AJ9wDPO2nOmzFeaS-65" target="Dpz7AJ9wDPO2nOmzFeaS-2" edge="1">
          <mxGeometry width="50" height="50" relative="1" as="geometry">
            <mxPoint y="970.4545454545455" as="sourcePoint" />
            <mxPoint y="397.72727272727275" as="targetPoint" />
            <Array as="points">
              <mxPoint y="397.72727272727275" />
            </Array>
          </mxGeometry>
        </mxCell>
        <mxCell id="Dpz7AJ9wDPO2nOmzFeaS-56" value="" style="endArrow=classic;html=1;rounded=0;" parent="Dpz7AJ9wDPO2nOmzFeaS-65" edge="1">
          <mxGeometry width="50" height="50" relative="1" as="geometry">
            <mxPoint x="130.17857142857142" y="970.4545454545455" as="sourcePoint" />
            <mxPoint y="970.4545454545455" as="targetPoint" />
          </mxGeometry>
        </mxCell>
        <mxCell id="Dpz7AJ9wDPO2nOmzFeaS-60" value="" style="endArrow=classic;html=1;rounded=0;entryX=0;entryY=0.5;entryDx=0;entryDy=0;" parent="Dpz7AJ9wDPO2nOmzFeaS-65" target="Dpz7AJ9wDPO2nOmzFeaS-10" edge="1">
          <mxGeometry width="50" height="50" relative="1" as="geometry">
            <mxPoint x="130.17857142857142" y="941.8181818181818" as="sourcePoint" />
            <mxPoint x="57.857142857142854" y="652.2727272727273" as="targetPoint" />
            <Array as="points">
              <mxPoint x="57.857142857142854" y="941.8181818181818" />
              <mxPoint x="57.857142857142854" y="747.7272727272726" />
            </Array>
          </mxGeometry>
        </mxCell>
        <mxCell id="Dpz7AJ9wDPO2nOmzFeaS-62" value="Acknowledgement Slip" style="text;html=1;strokeColor=none;fillColor=none;align=center;verticalAlign=middle;whiteSpace=wrap;rounded=0;" parent="Dpz7AJ9wDPO2nOmzFeaS-65" vertex="1">
          <mxGeometry x="43.39285714285714" y="676.1363636363636" width="86.78571428571428" height="47.72727272727273" as="geometry" />
        </mxCell>
      </root>
    </mxGraphModel>
  </diagram>
  <diagram id="crvpjxVEyPakq_63Qg0w" name="Carbon Credit Audit Company Formation Steps">
    <mxGraphModel dx="1050" dy="577" grid="1" gridSize="10" guides="1" tooltips="1" connect="1" arrows="1" fold="1" page="1" pageScale="1" pageWidth="850" pageHeight="1100" math="0" shadow="0">
      <root>
        <mxCell id="0" />
        <mxCell id="1" parent="0" />
        <mxCell id="P3j9lCpjNu8bL7o53Zdm-41" value="" style="group" vertex="1" connectable="0" parent="1">
          <mxGeometry x="70" y="100" width="730" height="664" as="geometry" />
        </mxCell>
        <mxCell id="P3j9lCpjNu8bL7o53Zdm-1" value="Energy Auditing consultancy &lt;br&gt;and &lt;br&gt;an ESCO (Energy Services Company)" style="rounded=1;whiteSpace=wrap;html=1;" vertex="1" parent="P3j9lCpjNu8bL7o53Zdm-41">
          <mxGeometry x="220" y="420" width="240" height="70" as="geometry" />
        </mxCell>
        <mxCell id="P3j9lCpjNu8bL7o53Zdm-3" value="Grading Process" style="whiteSpace=wrap;html=1;rounded=1;" vertex="1" parent="P3j9lCpjNu8bL7o53Zdm-41">
          <mxGeometry x="280" y="275" width="120" height="60" as="geometry" />
        </mxCell>
        <mxCell id="P3j9lCpjNu8bL7o53Zdm-6" value="Assign Agency" style="whiteSpace=wrap;html=1;rounded=1;" vertex="1" parent="P3j9lCpjNu8bL7o53Zdm-41">
          <mxGeometry x="280" y="135" width="120" height="60" as="geometry" />
        </mxCell>
        <mxCell id="P3j9lCpjNu8bL7o53Zdm-8" value="grading process conducted by SEBI Accredited rating agencies such as CRISIL, CARE Advisory Research &amp;amp; Training Ltd, and ICRA Analytics Ltd.&amp;nbsp;" style="text;html=1;strokeColor=none;fillColor=none;align=center;verticalAlign=middle;whiteSpace=wrap;rounded=0;" vertex="1" parent="P3j9lCpjNu8bL7o53Zdm-41">
          <mxGeometry x="420" y="150" width="220" height="30" as="geometry" />
        </mxCell>
        <mxCell id="P3j9lCpjNu8bL7o53Zdm-9" value="" style="endArrow=classic;html=1;rounded=0;" edge="1" parent="P3j9lCpjNu8bL7o53Zdm-41">
          <mxGeometry width="50" height="50" relative="1" as="geometry">
            <mxPoint x="335" y="490" as="sourcePoint" />
            <mxPoint x="335" y="540" as="targetPoint" />
          </mxGeometry>
        </mxCell>
        <mxCell id="P3j9lCpjNu8bL7o53Zdm-10" value="" style="endArrow=classic;html=1;rounded=0;" edge="1" parent="P3j9lCpjNu8bL7o53Zdm-41">
          <mxGeometry width="50" height="50" relative="1" as="geometry">
            <mxPoint x="250" y="490" as="sourcePoint" />
            <mxPoint x="170" y="550" as="targetPoint" />
          </mxGeometry>
        </mxCell>
        <mxCell id="P3j9lCpjNu8bL7o53Zdm-13" value="" style="endArrow=classic;html=1;rounded=0;" edge="1" parent="P3j9lCpjNu8bL7o53Zdm-41">
          <mxGeometry width="50" height="50" relative="1" as="geometry">
            <mxPoint x="430" y="490" as="sourcePoint" />
            <mxPoint x="490" y="550" as="targetPoint" />
          </mxGeometry>
        </mxCell>
        <mxCell id="P3j9lCpjNu8bL7o53Zdm-17" value="Carbon Credit Cert. 1" style="swimlane;fontStyle=0;childLayout=stackLayout;horizontal=1;startSize=26;fillColor=none;horizontalStack=0;resizeParent=1;resizeParentMax=0;resizeLast=0;collapsible=1;marginBottom=0;html=1;" vertex="1" parent="P3j9lCpjNu8bL7o53Zdm-41">
          <mxGeometry x="30" y="560" width="140" height="104" as="geometry" />
        </mxCell>
        <mxCell id="P3j9lCpjNu8bL7o53Zdm-18" value="Item 1" style="text;strokeColor=none;fillColor=none;align=left;verticalAlign=top;spacingLeft=4;spacingRight=4;overflow=hidden;rotatable=0;points=[[0,0.5],[1,0.5]];portConstraint=eastwest;whiteSpace=wrap;html=1;" vertex="1" parent="P3j9lCpjNu8bL7o53Zdm-17">
          <mxGeometry y="26" width="140" height="26" as="geometry" />
        </mxCell>
        <mxCell id="P3j9lCpjNu8bL7o53Zdm-19" value="Item 2" style="text;strokeColor=none;fillColor=none;align=left;verticalAlign=top;spacingLeft=4;spacingRight=4;overflow=hidden;rotatable=0;points=[[0,0.5],[1,0.5]];portConstraint=eastwest;whiteSpace=wrap;html=1;" vertex="1" parent="P3j9lCpjNu8bL7o53Zdm-17">
          <mxGeometry y="52" width="140" height="26" as="geometry" />
        </mxCell>
        <mxCell id="P3j9lCpjNu8bL7o53Zdm-20" value="Item 3" style="text;strokeColor=none;fillColor=none;align=left;verticalAlign=top;spacingLeft=4;spacingRight=4;overflow=hidden;rotatable=0;points=[[0,0.5],[1,0.5]];portConstraint=eastwest;whiteSpace=wrap;html=1;" vertex="1" parent="P3j9lCpjNu8bL7o53Zdm-17">
          <mxGeometry y="78" width="140" height="26" as="geometry" />
        </mxCell>
        <mxCell id="P3j9lCpjNu8bL7o53Zdm-21" value="Carbon Credit Cert. 2" style="swimlane;fontStyle=0;childLayout=stackLayout;horizontal=1;startSize=26;fillColor=none;horizontalStack=0;resizeParent=1;resizeParentMax=0;resizeLast=0;collapsible=1;marginBottom=0;html=1;" vertex="1" parent="P3j9lCpjNu8bL7o53Zdm-41">
          <mxGeometry x="260" y="560" width="140" height="104" as="geometry" />
        </mxCell>
        <mxCell id="P3j9lCpjNu8bL7o53Zdm-22" value="Item 1" style="text;strokeColor=none;fillColor=none;align=left;verticalAlign=top;spacingLeft=4;spacingRight=4;overflow=hidden;rotatable=0;points=[[0,0.5],[1,0.5]];portConstraint=eastwest;whiteSpace=wrap;html=1;" vertex="1" parent="P3j9lCpjNu8bL7o53Zdm-21">
          <mxGeometry y="26" width="140" height="26" as="geometry" />
        </mxCell>
        <mxCell id="P3j9lCpjNu8bL7o53Zdm-23" value="Item 2" style="text;strokeColor=none;fillColor=none;align=left;verticalAlign=top;spacingLeft=4;spacingRight=4;overflow=hidden;rotatable=0;points=[[0,0.5],[1,0.5]];portConstraint=eastwest;whiteSpace=wrap;html=1;" vertex="1" parent="P3j9lCpjNu8bL7o53Zdm-21">
          <mxGeometry y="52" width="140" height="26" as="geometry" />
        </mxCell>
        <mxCell id="P3j9lCpjNu8bL7o53Zdm-24" value="Item 3" style="text;strokeColor=none;fillColor=none;align=left;verticalAlign=top;spacingLeft=4;spacingRight=4;overflow=hidden;rotatable=0;points=[[0,0.5],[1,0.5]];portConstraint=eastwest;whiteSpace=wrap;html=1;" vertex="1" parent="P3j9lCpjNu8bL7o53Zdm-21">
          <mxGeometry y="78" width="140" height="26" as="geometry" />
        </mxCell>
        <mxCell id="P3j9lCpjNu8bL7o53Zdm-25" value="Carbon Credit Cert. 3" style="swimlane;fontStyle=0;childLayout=stackLayout;horizontal=1;startSize=26;fillColor=none;horizontalStack=0;resizeParent=1;resizeParentMax=0;resizeLast=0;collapsible=1;marginBottom=0;html=1;" vertex="1" parent="P3j9lCpjNu8bL7o53Zdm-41">
          <mxGeometry x="450" y="560" width="140" height="104" as="geometry" />
        </mxCell>
        <mxCell id="P3j9lCpjNu8bL7o53Zdm-26" value="Item 1" style="text;strokeColor=none;fillColor=none;align=left;verticalAlign=top;spacingLeft=4;spacingRight=4;overflow=hidden;rotatable=0;points=[[0,0.5],[1,0.5]];portConstraint=eastwest;whiteSpace=wrap;html=1;" vertex="1" parent="P3j9lCpjNu8bL7o53Zdm-25">
          <mxGeometry y="26" width="140" height="26" as="geometry" />
        </mxCell>
        <mxCell id="P3j9lCpjNu8bL7o53Zdm-27" value="Item 2" style="text;strokeColor=none;fillColor=none;align=left;verticalAlign=top;spacingLeft=4;spacingRight=4;overflow=hidden;rotatable=0;points=[[0,0.5],[1,0.5]];portConstraint=eastwest;whiteSpace=wrap;html=1;" vertex="1" parent="P3j9lCpjNu8bL7o53Zdm-25">
          <mxGeometry y="52" width="140" height="26" as="geometry" />
        </mxCell>
        <mxCell id="P3j9lCpjNu8bL7o53Zdm-28" value="Item 3" style="text;strokeColor=none;fillColor=none;align=left;verticalAlign=top;spacingLeft=4;spacingRight=4;overflow=hidden;rotatable=0;points=[[0,0.5],[1,0.5]];portConstraint=eastwest;whiteSpace=wrap;html=1;" vertex="1" parent="P3j9lCpjNu8bL7o53Zdm-25">
          <mxGeometry y="78" width="140" height="26" as="geometry" />
        </mxCell>
        <mxCell id="P3j9lCpjNu8bL7o53Zdm-29" value="Approach &amp;nbsp;Bureau of Energy Efficiency (BEE)" style="whiteSpace=wrap;html=1;rounded=1;" vertex="1" parent="P3j9lCpjNu8bL7o53Zdm-41">
          <mxGeometry x="280" width="120" height="60" as="geometry" />
        </mxCell>
        <mxCell id="P3j9lCpjNu8bL7o53Zdm-30" value="" style="endArrow=classic;html=1;rounded=0;" edge="1" parent="P3j9lCpjNu8bL7o53Zdm-41" target="P3j9lCpjNu8bL7o53Zdm-6">
          <mxGeometry width="50" height="50" relative="1" as="geometry">
            <mxPoint x="340" y="60" as="sourcePoint" />
            <mxPoint x="390" y="10" as="targetPoint" />
          </mxGeometry>
        </mxCell>
        <mxCell id="P3j9lCpjNu8bL7o53Zdm-31" value="BEE empanels ESCO" style="text;html=1;strokeColor=none;fillColor=none;align=center;verticalAlign=middle;whiteSpace=wrap;rounded=0;" vertex="1" parent="P3j9lCpjNu8bL7o53Zdm-41">
          <mxGeometry x="500" y="430" width="90" height="30" as="geometry" />
        </mxCell>
        <mxCell id="P3j9lCpjNu8bL7o53Zdm-32" value="" style="endArrow=classic;html=1;rounded=0;entryX=0.5;entryY=0;entryDx=0;entryDy=0;" edge="1" parent="P3j9lCpjNu8bL7o53Zdm-41" target="P3j9lCpjNu8bL7o53Zdm-3">
          <mxGeometry width="50" height="50" relative="1" as="geometry">
            <mxPoint x="339.5" y="195" as="sourcePoint" />
            <mxPoint x="339.5" y="270" as="targetPoint" />
          </mxGeometry>
        </mxCell>
        <mxCell id="P3j9lCpjNu8bL7o53Zdm-33" value="" style="endArrow=classic;html=1;rounded=0;entryX=0.5;entryY=0;entryDx=0;entryDy=0;" edge="1" parent="P3j9lCpjNu8bL7o53Zdm-41" target="P3j9lCpjNu8bL7o53Zdm-1">
          <mxGeometry width="50" height="50" relative="1" as="geometry">
            <mxPoint x="339.5" y="335" as="sourcePoint" />
            <mxPoint x="339.5" y="410" as="targetPoint" />
          </mxGeometry>
        </mxCell>
        <mxCell id="P3j9lCpjNu8bL7o53Zdm-34" value="ESCO issues certificates" style="text;html=1;strokeColor=none;fillColor=none;align=center;verticalAlign=middle;whiteSpace=wrap;rounded=0;" vertex="1" parent="P3j9lCpjNu8bL7o53Zdm-41">
          <mxGeometry x="621" y="580" width="90" height="30" as="geometry" />
        </mxCell>
        <mxCell id="P3j9lCpjNu8bL7o53Zdm-35" value="Compile all relevant documents and information as required by the BEE and the grading agencies." style="text;html=1;strokeColor=none;fillColor=none;align=center;verticalAlign=middle;whiteSpace=wrap;rounded=0;" vertex="1" parent="P3j9lCpjNu8bL7o53Zdm-41">
          <mxGeometry y="305" width="220" height="30" as="geometry" />
        </mxCell>
        <mxCell id="P3j9lCpjNu8bL7o53Zdm-36" value="" style="endArrow=classic;startArrow=classic;html=1;rounded=0;exitX=0;exitY=0.5;exitDx=0;exitDy=0;" edge="1" parent="P3j9lCpjNu8bL7o53Zdm-41" source="P3j9lCpjNu8bL7o53Zdm-29">
          <mxGeometry width="50" height="50" relative="1" as="geometry">
            <mxPoint x="270" as="sourcePoint" />
            <mxPoint x="340" y="370" as="targetPoint" />
            <Array as="points">
              <mxPoint x="230" y="30" />
              <mxPoint x="230" y="370" />
            </Array>
          </mxGeometry>
        </mxCell>
        <mxCell id="P3j9lCpjNu8bL7o53Zdm-37" value="" style="endArrow=classic;html=1;rounded=0;" edge="1" parent="P3j9lCpjNu8bL7o53Zdm-41">
          <mxGeometry width="50" height="50" relative="1" as="geometry">
            <mxPoint x="260" y="370" as="sourcePoint" />
            <mxPoint x="240" y="370" as="targetPoint" />
          </mxGeometry>
        </mxCell>
        <mxCell id="P3j9lCpjNu8bL7o53Zdm-38" value="" style="endArrow=classic;html=1;rounded=0;" edge="1" parent="P3j9lCpjNu8bL7o53Zdm-41">
          <mxGeometry width="50" height="50" relative="1" as="geometry">
            <mxPoint x="250" y="29.5" as="sourcePoint" />
            <mxPoint x="230" y="29.5" as="targetPoint" />
          </mxGeometry>
        </mxCell>
        <mxCell id="P3j9lCpjNu8bL7o53Zdm-39" value="" style="endArrow=classic;html=1;rounded=0;" edge="1" parent="P3j9lCpjNu8bL7o53Zdm-41">
          <mxGeometry width="50" height="50" relative="1" as="geometry">
            <mxPoint x="230" y="120" as="sourcePoint" />
            <mxPoint x="230" y="130" as="targetPoint" />
          </mxGeometry>
        </mxCell>
        <mxCell id="P3j9lCpjNu8bL7o53Zdm-40" value="" style="endArrow=classic;html=1;rounded=0;" edge="1" parent="P3j9lCpjNu8bL7o53Zdm-41">
          <mxGeometry width="50" height="50" relative="1" as="geometry">
            <mxPoint x="230" y="260" as="sourcePoint" />
            <mxPoint x="230" y="240" as="targetPoint" />
          </mxGeometry>
        </mxCell>
        <mxCell id="P3j9lCpjNu8bL7o53Zdm-5" value="It indicates the ESCO&#39;s capability to implement energy efficiency projects based on factors like technical manpower, financial strength, and market position​​." style="text;html=1;strokeColor=none;fillColor=none;align=center;verticalAlign=middle;whiteSpace=wrap;rounded=0;" vertex="1" parent="P3j9lCpjNu8bL7o53Zdm-41">
          <mxGeometry x="400" y="290" width="320" height="30" as="geometry" />
        </mxCell>
        <mxCell id="P3j9lCpjNu8bL7o53Zdm-43" value="&lt;h1&gt;Steps To Become A Carbon Credit Certifying Body&lt;/h1&gt;" style="text;html=1;strokeColor=none;fillColor=none;spacing=5;spacingTop=-20;whiteSpace=wrap;overflow=hidden;rounded=0;" vertex="1" parent="1">
          <mxGeometry x="150" y="30" width="610" height="40" as="geometry" />
        </mxCell>
      </root>
    </mxGraphModel>
  </diagram>
  <diagram id="nwt4vnvbEinr6atedSr2" name="Govt. Structure For Carbon Schemes">
    <mxGraphModel dx="1615" dy="888" grid="1" gridSize="10" guides="1" tooltips="1" connect="1" arrows="1" fold="1" page="1" pageScale="1" pageWidth="850" pageHeight="1100" math="0" shadow="0">
      <root>
        <mxCell id="0" />
        <mxCell id="1" parent="0" />
        <mxCell id="-yxee4TKV9LIHLRj-8bN-1" value="Carbon Credit Scheme 2023" style="text;html=1;strokeColor=none;fillColor=none;align=center;verticalAlign=middle;whiteSpace=wrap;rounded=0;fontSize=20;fontStyle=1" vertex="1" parent="1">
          <mxGeometry x="25" y="10" width="385" height="30" as="geometry" />
        </mxCell>
        <mxCell id="-yxee4TKV9LIHLRj-8bN-58" value="" style="group" vertex="1" connectable="0" parent="1">
          <mxGeometry x="25" y="80" width="750" height="820" as="geometry" />
        </mxCell>
        <mxCell id="-yxee4TKV9LIHLRj-8bN-22" value="&lt;b&gt;&lt;font style=&quot;font-size: 15px;&quot;&gt;Carbon Trading Market&lt;/font&gt;&lt;/b&gt;" style="rounded=1;whiteSpace=wrap;html=1;" vertex="1" parent="-yxee4TKV9LIHLRj-8bN-58">
          <mxGeometry x="40" y="600" width="410" height="220" as="geometry" />
        </mxCell>
        <mxCell id="-yxee4TKV9LIHLRj-8bN-2" value="Ministry of Power" style="rounded=1;whiteSpace=wrap;html=1;fontStyle=1" vertex="1" parent="-yxee4TKV9LIHLRj-8bN-58">
          <mxGeometry x="160" width="120" height="60" as="geometry" />
        </mxCell>
        <mxCell id="-yxee4TKV9LIHLRj-8bN-3" value="&lt;ul&gt;&lt;li&gt;Name the sectors&lt;/li&gt;&lt;li&gt;Name the obligated entities&lt;/li&gt;&lt;li&gt;Fix Emission Intensity Targets&lt;/li&gt;&lt;/ul&gt;" style="text;html=1;strokeColor=none;fillColor=none;align=left;verticalAlign=middle;whiteSpace=wrap;rounded=0;" vertex="1" parent="-yxee4TKV9LIHLRj-8bN-58">
          <mxGeometry x="270" y="15" width="240" height="30" as="geometry" />
        </mxCell>
        <mxCell id="-yxee4TKV9LIHLRj-8bN-4" value="Ministry of Environment, Forest and Climate Change&amp;nbsp;" style="whiteSpace=wrap;html=1;rounded=1;fontStyle=1" vertex="1" parent="-yxee4TKV9LIHLRj-8bN-58">
          <mxGeometry x="160" y="140" width="120" height="60" as="geometry" />
        </mxCell>
        <mxCell id="-yxee4TKV9LIHLRj-8bN-5" value="" style="edgeStyle=orthogonalEdgeStyle;rounded=0;orthogonalLoop=1;jettySize=auto;html=1;" edge="1" parent="-yxee4TKV9LIHLRj-8bN-58" source="-yxee4TKV9LIHLRj-8bN-2" target="-yxee4TKV9LIHLRj-8bN-4">
          <mxGeometry relative="1" as="geometry" />
        </mxCell>
        <mxCell id="-yxee4TKV9LIHLRj-8bN-6" value="Hand Over Info For Notification" style="text;html=1;strokeColor=none;fillColor=none;align=left;verticalAlign=middle;whiteSpace=wrap;rounded=0;" vertex="1" parent="-yxee4TKV9LIHLRj-8bN-58">
          <mxGeometry x="240" y="90" width="170" height="30" as="geometry" />
        </mxCell>
        <mxCell id="-yxee4TKV9LIHLRj-8bN-7" value="&lt;b&gt;&amp;nbsp; Ministry of Power&lt;/b&gt;" style="whiteSpace=wrap;html=1;rounded=1;" vertex="1" parent="-yxee4TKV9LIHLRj-8bN-58">
          <mxGeometry x="105" y="290" width="230" height="290" as="geometry" />
        </mxCell>
        <mxCell id="-yxee4TKV9LIHLRj-8bN-8" value="" style="edgeStyle=orthogonalEdgeStyle;rounded=0;orthogonalLoop=1;jettySize=auto;html=1;" edge="1" parent="-yxee4TKV9LIHLRj-8bN-58" source="-yxee4TKV9LIHLRj-8bN-4" target="-yxee4TKV9LIHLRj-8bN-7">
          <mxGeometry relative="1" as="geometry" />
        </mxCell>
        <mxCell id="-yxee4TKV9LIHLRj-8bN-9" value="&lt;b&gt;Bureau of Energy Efficiency (BEE)&lt;/b&gt;&lt;br&gt;&lt;i&gt;Under Govt. of India &amp;amp; MoP&lt;/i&gt;" style="rounded=1;whiteSpace=wrap;html=1;" vertex="1" parent="-yxee4TKV9LIHLRj-8bN-58">
          <mxGeometry x="145" y="450" width="170" height="100" as="geometry" />
        </mxCell>
        <mxCell id="-yxee4TKV9LIHLRj-8bN-14" value="" style="curved=1;endArrow=classic;html=1;rounded=0;" edge="1" parent="-yxee4TKV9LIHLRj-8bN-58">
          <mxGeometry width="50" height="50" relative="1" as="geometry">
            <mxPoint x="60" y="540" as="sourcePoint" />
            <mxPoint x="145" y="500" as="targetPoint" />
            <Array as="points">
              <mxPoint x="145" y="550" />
              <mxPoint x="95" y="500" />
            </Array>
          </mxGeometry>
        </mxCell>
        <mxCell id="-yxee4TKV9LIHLRj-8bN-16" value="Administrator &lt;br&gt;of the &lt;br&gt;Carbon Credit Scheme&amp;nbsp;" style="text;html=1;strokeColor=none;fillColor=none;align=center;verticalAlign=middle;whiteSpace=wrap;rounded=0;" vertex="1" parent="-yxee4TKV9LIHLRj-8bN-58">
          <mxGeometry y="480" width="95" height="60" as="geometry" />
        </mxCell>
        <mxCell id="-yxee4TKV9LIHLRj-8bN-17" value="Issue Carbon Credits" style="rounded=1;whiteSpace=wrap;html=1;" vertex="1" parent="-yxee4TKV9LIHLRj-8bN-58">
          <mxGeometry x="70" y="630" width="120" height="60" as="geometry" />
        </mxCell>
        <mxCell id="-yxee4TKV9LIHLRj-8bN-18" value="Accredit Carbon Credit Verifying Agencies" style="rounded=1;whiteSpace=wrap;html=1;" vertex="1" parent="-yxee4TKV9LIHLRj-8bN-58">
          <mxGeometry x="270" y="630" width="120" height="60" as="geometry" />
        </mxCell>
        <mxCell id="-yxee4TKV9LIHLRj-8bN-19" value="" style="endArrow=classic;html=1;rounded=0;entryX=0.698;entryY=-0.033;entryDx=0;entryDy=0;entryPerimeter=0;exitX=0.396;exitY=1.006;exitDx=0;exitDy=0;exitPerimeter=0;" edge="1" parent="-yxee4TKV9LIHLRj-8bN-58" source="-yxee4TKV9LIHLRj-8bN-7" target="-yxee4TKV9LIHLRj-8bN-17">
          <mxGeometry width="50" height="50" relative="1" as="geometry">
            <mxPoint x="130" y="620" as="sourcePoint" />
            <mxPoint x="180" y="570" as="targetPoint" />
          </mxGeometry>
        </mxCell>
        <mxCell id="-yxee4TKV9LIHLRj-8bN-20" value="" style="endArrow=classic;html=1;rounded=0;entryX=0.431;entryY=-0.024;entryDx=0;entryDy=0;entryPerimeter=0;exitX=0.396;exitY=1.006;exitDx=0;exitDy=0;exitPerimeter=0;" edge="1" parent="-yxee4TKV9LIHLRj-8bN-58" target="-yxee4TKV9LIHLRj-8bN-18">
          <mxGeometry width="50" height="50" relative="1" as="geometry">
            <mxPoint x="270" y="580" as="sourcePoint" />
            <mxPoint x="228" y="626" as="targetPoint" />
          </mxGeometry>
        </mxCell>
        <mxCell id="-yxee4TKV9LIHLRj-8bN-25" value="&lt;b&gt;Central Electricity Regulatory Commission (CERC)&lt;/b&gt;" style="ellipse;whiteSpace=wrap;html=1;" vertex="1" parent="-yxee4TKV9LIHLRj-8bN-58">
          <mxGeometry x="175" y="720" width="140" height="90" as="geometry" />
        </mxCell>
        <mxCell id="-yxee4TKV9LIHLRj-8bN-26" value="Grid Controller of India Ltd." style="shape=cylinder3;whiteSpace=wrap;html=1;boundedLbl=1;backgroundOutline=1;size=15;" vertex="1" parent="-yxee4TKV9LIHLRj-8bN-58">
          <mxGeometry x="485" y="670" width="100" height="120" as="geometry" />
        </mxCell>
        <mxCell id="-yxee4TKV9LIHLRj-8bN-41" value="" style="edgeStyle=orthogonalEdgeStyle;rounded=0;orthogonalLoop=1;jettySize=auto;html=1;" edge="1" parent="-yxee4TKV9LIHLRj-8bN-58" source="-yxee4TKV9LIHLRj-8bN-22" target="-yxee4TKV9LIHLRj-8bN-26">
          <mxGeometry relative="1" as="geometry" />
        </mxCell>
        <mxCell id="-yxee4TKV9LIHLRj-8bN-28" value="Meta Register of &#xa;Transactions" style="shape=table;startSize=30;container=1;collapsible=0;childLayout=tableLayout;strokeColor=default;fontSize=8;" vertex="1" parent="-yxee4TKV9LIHLRj-8bN-58">
          <mxGeometry x="500" y="640" width="70" height="50" as="geometry" />
        </mxCell>
        <mxCell id="-yxee4TKV9LIHLRj-8bN-29" value="" style="shape=tableRow;horizontal=0;startSize=0;swimlaneHead=0;swimlaneBody=0;strokeColor=inherit;top=0;left=0;bottom=0;right=0;collapsible=0;dropTarget=0;fillColor=none;points=[[0,0.5],[1,0.5]];portConstraint=eastwest;fontSize=16;" vertex="1" parent="-yxee4TKV9LIHLRj-8bN-28">
          <mxGeometry y="30" width="70" height="7" as="geometry" />
        </mxCell>
        <mxCell id="-yxee4TKV9LIHLRj-8bN-30" value="" style="shape=partialRectangle;html=1;whiteSpace=wrap;connectable=0;strokeColor=inherit;overflow=hidden;fillColor=none;top=0;left=0;bottom=0;right=0;pointerEvents=1;fontSize=16;" vertex="1" parent="-yxee4TKV9LIHLRj-8bN-29">
          <mxGeometry width="23" height="7" as="geometry">
            <mxRectangle width="23" height="7" as="alternateBounds" />
          </mxGeometry>
        </mxCell>
        <mxCell id="-yxee4TKV9LIHLRj-8bN-31" value="" style="shape=partialRectangle;html=1;whiteSpace=wrap;connectable=0;strokeColor=inherit;overflow=hidden;fillColor=none;top=0;left=0;bottom=0;right=0;pointerEvents=1;fontSize=16;" vertex="1" parent="-yxee4TKV9LIHLRj-8bN-29">
          <mxGeometry x="23" width="24" height="7" as="geometry">
            <mxRectangle width="24" height="7" as="alternateBounds" />
          </mxGeometry>
        </mxCell>
        <mxCell id="-yxee4TKV9LIHLRj-8bN-32" value="" style="shape=partialRectangle;html=1;whiteSpace=wrap;connectable=0;strokeColor=inherit;overflow=hidden;fillColor=none;top=0;left=0;bottom=0;right=0;pointerEvents=1;fontSize=16;" vertex="1" parent="-yxee4TKV9LIHLRj-8bN-29">
          <mxGeometry x="47" width="23" height="7" as="geometry">
            <mxRectangle width="23" height="7" as="alternateBounds" />
          </mxGeometry>
        </mxCell>
        <mxCell id="-yxee4TKV9LIHLRj-8bN-33" value="" style="shape=tableRow;horizontal=0;startSize=0;swimlaneHead=0;swimlaneBody=0;strokeColor=inherit;top=0;left=0;bottom=0;right=0;collapsible=0;dropTarget=0;fillColor=none;points=[[0,0.5],[1,0.5]];portConstraint=eastwest;fontSize=16;" vertex="1" parent="-yxee4TKV9LIHLRj-8bN-28">
          <mxGeometry y="37" width="70" height="7" as="geometry" />
        </mxCell>
        <mxCell id="-yxee4TKV9LIHLRj-8bN-34" value="" style="shape=partialRectangle;html=1;whiteSpace=wrap;connectable=0;strokeColor=inherit;overflow=hidden;fillColor=none;top=0;left=0;bottom=0;right=0;pointerEvents=1;fontSize=16;" vertex="1" parent="-yxee4TKV9LIHLRj-8bN-33">
          <mxGeometry width="23" height="7" as="geometry">
            <mxRectangle width="23" height="7" as="alternateBounds" />
          </mxGeometry>
        </mxCell>
        <mxCell id="-yxee4TKV9LIHLRj-8bN-35" value="" style="shape=partialRectangle;html=1;whiteSpace=wrap;connectable=0;strokeColor=inherit;overflow=hidden;fillColor=none;top=0;left=0;bottom=0;right=0;pointerEvents=1;fontSize=16;" vertex="1" parent="-yxee4TKV9LIHLRj-8bN-33">
          <mxGeometry x="23" width="24" height="7" as="geometry">
            <mxRectangle width="24" height="7" as="alternateBounds" />
          </mxGeometry>
        </mxCell>
        <mxCell id="-yxee4TKV9LIHLRj-8bN-36" value="" style="shape=partialRectangle;html=1;whiteSpace=wrap;connectable=0;strokeColor=inherit;overflow=hidden;fillColor=none;top=0;left=0;bottom=0;right=0;pointerEvents=1;fontSize=16;" vertex="1" parent="-yxee4TKV9LIHLRj-8bN-33">
          <mxGeometry x="47" width="23" height="7" as="geometry">
            <mxRectangle width="23" height="7" as="alternateBounds" />
          </mxGeometry>
        </mxCell>
        <mxCell id="-yxee4TKV9LIHLRj-8bN-37" value="" style="shape=tableRow;horizontal=0;startSize=0;swimlaneHead=0;swimlaneBody=0;strokeColor=inherit;top=0;left=0;bottom=0;right=0;collapsible=0;dropTarget=0;fillColor=none;points=[[0,0.5],[1,0.5]];portConstraint=eastwest;fontSize=16;" vertex="1" parent="-yxee4TKV9LIHLRj-8bN-28">
          <mxGeometry y="44" width="70" height="6" as="geometry" />
        </mxCell>
        <mxCell id="-yxee4TKV9LIHLRj-8bN-38" value="" style="shape=partialRectangle;html=1;whiteSpace=wrap;connectable=0;strokeColor=inherit;overflow=hidden;fillColor=none;top=0;left=0;bottom=0;right=0;pointerEvents=1;fontSize=16;" vertex="1" parent="-yxee4TKV9LIHLRj-8bN-37">
          <mxGeometry width="23" height="6" as="geometry">
            <mxRectangle width="23" height="6" as="alternateBounds" />
          </mxGeometry>
        </mxCell>
        <mxCell id="-yxee4TKV9LIHLRj-8bN-39" value="" style="shape=partialRectangle;html=1;whiteSpace=wrap;connectable=0;strokeColor=inherit;overflow=hidden;fillColor=none;top=0;left=0;bottom=0;right=0;pointerEvents=1;fontSize=16;" vertex="1" parent="-yxee4TKV9LIHLRj-8bN-37">
          <mxGeometry x="23" width="24" height="6" as="geometry">
            <mxRectangle width="24" height="6" as="alternateBounds" />
          </mxGeometry>
        </mxCell>
        <mxCell id="-yxee4TKV9LIHLRj-8bN-40" value="" style="shape=partialRectangle;html=1;whiteSpace=wrap;connectable=0;strokeColor=inherit;overflow=hidden;fillColor=none;top=0;left=0;bottom=0;right=0;pointerEvents=1;fontSize=16;" vertex="1" parent="-yxee4TKV9LIHLRj-8bN-37">
          <mxGeometry x="47" width="23" height="6" as="geometry">
            <mxRectangle width="23" height="6" as="alternateBounds" />
          </mxGeometry>
        </mxCell>
        <mxCell id="-yxee4TKV9LIHLRj-8bN-57" value="" style="group" vertex="1" connectable="0" parent="-yxee4TKV9LIHLRj-8bN-58">
          <mxGeometry x="390" y="415" width="360" height="170" as="geometry" />
        </mxCell>
        <mxCell id="-yxee4TKV9LIHLRj-8bN-43" value="National Steering Committee (NSC)" style="rounded=1;whiteSpace=wrap;html=1;fontStyle=1" vertex="1" parent="-yxee4TKV9LIHLRj-8bN-57">
          <mxGeometry x="80" width="120" height="60" as="geometry" />
        </mxCell>
        <mxCell id="-yxee4TKV9LIHLRj-8bN-44" value="Secretaries of MoP" style="text;html=1;strokeColor=none;fillColor=none;align=center;verticalAlign=middle;whiteSpace=wrap;rounded=0;" vertex="1" parent="-yxee4TKV9LIHLRj-8bN-57">
          <mxGeometry y="140" width="60" height="30" as="geometry" />
        </mxCell>
        <mxCell id="-yxee4TKV9LIHLRj-8bN-45" value="Secretaries of MoEnv" style="text;html=1;strokeColor=none;fillColor=none;align=center;verticalAlign=middle;whiteSpace=wrap;rounded=0;" vertex="1" parent="-yxee4TKV9LIHLRj-8bN-57">
          <mxGeometry x="70" y="140" width="60" height="30" as="geometry" />
        </mxCell>
        <mxCell id="-yxee4TKV9LIHLRj-8bN-46" value="Joint Secretaries" style="text;html=1;strokeColor=none;fillColor=none;align=center;verticalAlign=middle;whiteSpace=wrap;rounded=0;" vertex="1" parent="-yxee4TKV9LIHLRj-8bN-57">
          <mxGeometry x="130" y="140" width="60" height="30" as="geometry" />
        </mxCell>
        <mxCell id="-yxee4TKV9LIHLRj-8bN-48" value="Outside Expert Members" style="text;html=1;strokeColor=none;fillColor=none;align=center;verticalAlign=middle;whiteSpace=wrap;rounded=0;" vertex="1" parent="-yxee4TKV9LIHLRj-8bN-57">
          <mxGeometry x="200" y="140" width="60" height="30" as="geometry" />
        </mxCell>
        <mxCell id="-yxee4TKV9LIHLRj-8bN-49" value="" style="endArrow=classic;html=1;rounded=0;" edge="1" parent="-yxee4TKV9LIHLRj-8bN-57">
          <mxGeometry width="50" height="50" relative="1" as="geometry">
            <mxPoint x="115" y="75" as="sourcePoint" />
            <mxPoint x="85" y="135" as="targetPoint" />
          </mxGeometry>
        </mxCell>
        <mxCell id="-yxee4TKV9LIHLRj-8bN-50" value="" style="endArrow=classic;html=1;rounded=0;" edge="1" parent="-yxee4TKV9LIHLRj-8bN-57">
          <mxGeometry width="50" height="50" relative="1" as="geometry">
            <mxPoint x="80" y="75" as="sourcePoint" />
            <mxPoint x="50" y="135" as="targetPoint" />
          </mxGeometry>
        </mxCell>
        <mxCell id="-yxee4TKV9LIHLRj-8bN-51" value="" style="endArrow=classic;html=1;rounded=0;" edge="1" parent="-yxee4TKV9LIHLRj-8bN-57">
          <mxGeometry width="50" height="50" relative="1" as="geometry">
            <mxPoint x="150" y="80" as="sourcePoint" />
            <mxPoint x="150" y="130" as="targetPoint" />
          </mxGeometry>
        </mxCell>
        <mxCell id="-yxee4TKV9LIHLRj-8bN-53" value="" style="endArrow=classic;html=1;rounded=0;" edge="1" parent="-yxee4TKV9LIHLRj-8bN-57">
          <mxGeometry width="50" height="50" relative="1" as="geometry">
            <mxPoint x="180" y="80" as="sourcePoint" />
            <mxPoint x="220" y="130" as="targetPoint" />
          </mxGeometry>
        </mxCell>
        <mxCell id="-yxee4TKV9LIHLRj-8bN-54" value="CERC" style="text;html=1;strokeColor=none;fillColor=none;align=center;verticalAlign=middle;whiteSpace=wrap;rounded=0;" vertex="1" parent="-yxee4TKV9LIHLRj-8bN-57">
          <mxGeometry x="240" y="100" width="60" height="30" as="geometry" />
        </mxCell>
        <mxCell id="-yxee4TKV9LIHLRj-8bN-56" value="" style="endArrow=classic;html=1;rounded=0;entryX=0;entryY=0.25;entryDx=0;entryDy=0;" edge="1" parent="-yxee4TKV9LIHLRj-8bN-57" target="-yxee4TKV9LIHLRj-8bN-54">
          <mxGeometry width="50" height="50" relative="1" as="geometry">
            <mxPoint x="220" y="80" as="sourcePoint" />
            <mxPoint x="230" y="140" as="targetPoint" />
            <Array as="points" />
          </mxGeometry>
        </mxCell>
        <mxCell id="-yxee4TKV9LIHLRj-8bN-59" value="" style="endArrow=classic;startArrow=classic;html=1;rounded=0;exitX=0.997;exitY=0.62;exitDx=0;exitDy=0;exitPerimeter=0;entryX=0;entryY=0.5;entryDx=0;entryDy=0;" edge="1" parent="-yxee4TKV9LIHLRj-8bN-58" source="-yxee4TKV9LIHLRj-8bN-9" target="-yxee4TKV9LIHLRj-8bN-43">
          <mxGeometry width="50" height="50" relative="1" as="geometry">
            <mxPoint x="625" y="360" as="sourcePoint" />
            <mxPoint x="465" y="450" as="targetPoint" />
            <Array as="points">
              <mxPoint x="405" y="450" />
            </Array>
          </mxGeometry>
        </mxCell>
        <mxCell id="-yxee4TKV9LIHLRj-8bN-60" value="NSC will assist (BEE)" style="text;html=1;strokeColor=none;fillColor=none;align=center;verticalAlign=middle;whiteSpace=wrap;rounded=0;" vertex="1" parent="-yxee4TKV9LIHLRj-8bN-58">
          <mxGeometry x="345" y="415" width="125" height="30" as="geometry" />
        </mxCell>
      </root>
    </mxGraphModel>
  </diagram>
  <diagram id="H0TOyEgFEBSTHDar_rxh" name="Draft Green credit program implementation rules 2023">
    <mxGraphModel dx="1050" dy="577" grid="1" gridSize="10" guides="1" tooltips="1" connect="1" arrows="1" fold="1" page="1" pageScale="1" pageWidth="850" pageHeight="1100" math="0" shadow="0">
      <root>
        <mxCell id="0" />
        <mxCell id="1" parent="0" />
        <mxCell id="4Cd0bAuZAiwbuJwgULmk-1" value="Draft Green Credit Program Implementation rules 2023" style="text;html=1;strokeColor=none;fillColor=none;align=center;verticalAlign=middle;whiteSpace=wrap;rounded=0;fontStyle=1" vertex="1" parent="1">
          <mxGeometry x="250" y="30" width="340" height="30" as="geometry" />
        </mxCell>
        <mxCell id="4Cd0bAuZAiwbuJwgULmk-2" value="&lt;b&gt;Activities&lt;/b&gt;" style="rounded=1;whiteSpace=wrap;html=1;" vertex="1" parent="1">
          <mxGeometry x="360" y="130" width="120" height="60" as="geometry" />
        </mxCell>
        <mxCell id="4Cd0bAuZAiwbuJwgULmk-3" value="Tree Plantation" style="text;html=1;strokeColor=none;fillColor=none;align=center;verticalAlign=middle;whiteSpace=wrap;rounded=0;" vertex="1" parent="1">
          <mxGeometry x="100" y="270" width="60" height="30" as="geometry" />
        </mxCell>
        <mxCell id="4Cd0bAuZAiwbuJwgULmk-4" value="Water" style="text;html=1;strokeColor=none;fillColor=none;align=center;verticalAlign=middle;whiteSpace=wrap;rounded=0;" vertex="1" parent="1">
          <mxGeometry x="200" y="270" width="60" height="30" as="geometry" />
        </mxCell>
        <mxCell id="4Cd0bAuZAiwbuJwgULmk-5" value="Sustainable Agriculture" style="text;html=1;strokeColor=none;fillColor=none;align=center;verticalAlign=middle;whiteSpace=wrap;rounded=0;" vertex="1" parent="1">
          <mxGeometry x="280" y="270" width="60" height="30" as="geometry" />
        </mxCell>
      </root>
    </mxGraphModel>
  </diagram>
</mxfile>
